<?xml version="1.0" encoding="UTF-8"?>
<!--
    ================================================================
    [AI TRAINING METADATA]
    - KR_NAME_FULL     : 두길_긴뜨기_5코_구슬뜨기_한_코에서
    - KR_NAME_ABBR     : 두길5구슬
    - JA_NAME_FULL     : 長々編み5目の玉編み
    - JA_NAME_ABBR     : 長々5目玉編み
    - EN_NAME_US_FULL  : triple_crochet_5_stitch_bobble
    - EN_NAME_US_ABBR  : tr_5_st_bobble
    - EN_NAME_UK_FULL  : double_treble_crochet_5_stitch_bobble
    - EN_NAME_UK_ABBR  : dtr_5_st_bobble
    - SYMBOL_SHAPE     : 5_branched_oval_almond_shape_with_center_bar_top_bar_and_double_slashes
    - SYMBOL_STYLE     : tr_5_bobble_isolated
    - LAYOUT_RULE      : isolated
    - SYMBOL_DIRECTION : up
    - SYMBOL_MODIFIER  : none
    - STITCH_RATIO     : 1:4
    - STITCH_HEIGHT    : 4
    - STITCH_COUNT     : 5
    - CATEGORY         : bobble
    - Y_OFFSET         : 0
    - REVERSE_ALLOWED  : N
    - STITCH_DELTA     : 0
    ================================================================
  -->
<svg id="_레이어_1" data-name="레이어_1" xmlns="http://www.w3.org/2000/svg" version="1.1" viewBox="0 0 64 64">
  <!-- Generator: Adobe Illustrator 29.3.0, SVG Export Plug-In . SVG Version: 2.1.0 Build 146)  -->
  <defs>
    <style>
      .st0 {
        fill: none;
        stroke: #000;
        stroke-linecap: round;
        stroke-linejoin: round;
        stroke-width: 4px;
      }
    </style>
  </defs>
  <!-- 대표님이 정밀한 5가닥 대칭 볼륨 패스와 2단 수평 빗금 그룹화로 최적화하신 마스터 그래픽 (y=16~48, 두께 4px) -->
  <path class="st0" d="M20,16h24"/>
  <path class="st0" d="M32,16c-18.7,8-18.7,24,0,32"/>
  <path class="st0" d="M32,16c-10.1,8-10.1,24,0,32"/>
  <path class="st0" d="M32,16v32"/>
  <path class="st0" d="M32,16c10.1,8,10.1,24,0,32"/>
  <path class="st0" d="M32,16c18.7,8,18.7,24,0,32"/>
  <g>
    <path class="st0" d="M16,28.2l3.6,2.3"/>
    <path class="st0" d="M23,28.2l3.6,2.3"/>
    <path class="st0" d="M30.2,28l3.6,2.6"/>
    <path class="st0" d="M37.4,28.2l3.6,2.3"/>
    <path class="st0" d="M44.4,28.2l3.6,2.3"/>
  </g>
  <g>
    <path class="st0" d="M16,33.5l3.6,2.3"/>
    <path class="st0" d="M23,33.5l3.6,2.3"/>
    <path class="st0" d="M30.2,33.4l3.6,2.6"/>
    <path class="st0" d="M37.4,33.5l3.6,2.3"/>
    <path class="st0" d="M44.4,33.5l3.6,2.3"/>
  </g>
</svg>
