<?xml version="1.0" encoding="UTF-8"?>
<!--
    ================================================================
    [AI TRAINING METADATA]
    - KR_NAME_FULL     : 두길_긴뜨기_5코_구슬뜨기_코_아래에서
    - KR_NAME_ABBR     : 두길5구슬_아래
    - JA_NAME_FULL     : 長々編み5目の玉編み_下
    - JA_NAME_ABBR     : 長々3目玉編み_下
    - EN_NAME_US_FULL  : triple_crochet_5_stitch_bobble_from_below
    - EN_NAME_US_ABBR  : tr_5_st_bobble_blw
    - EN_NAME_UK_FULL  : double_treble_crochet_5_stitch_bobble_from_below
    - EN_NAME_UK_ABBR  : dtr_5_st_bobble_blw
    - SYMBOL_SHAPE     : 5_branched_inverted_open_oval_shape_with_center_bar_top_bar_and_double_slashes
    - SYMBOL_STYLE     : tr_5_bobble_open_base
    - LAYOUT_RULE      : isolated
    - SYMBOL_DIRECTION : up
    - SYMBOL_MODIFIER  : none
    - STITCH_RATIO     : 1:4
    - STITCH_HEIGHT    : 4
    - STITCH_COUNT     : 5
    - CATEGORY         : bobble
    - Y_OFFSET         : 0
    - REVERSE_ALLOWED  : N
    - STITCH_DELTA     : 0
    ================================================================
  -->
<svg id="_레이어_1" data-name="레이어_1" xmlns="http://www.w3.org/2000/svg" version="1.1" viewBox="0 0 64 64">
  <!-- Generator: Adobe Illustrator 29.3.0, SVG Export Plug-In . SVG Version: 2.1.0 Build 146)  -->
  <defs>
    <style>
      .st0 {
        fill: none;
        stroke: #000;
        stroke-linecap: round;
        stroke-linejoin: round;
        stroke-width: 4px;
      }
    </style>
  </defs>
  <!-- 대표님이 정밀한 하단 개방형 5가닥 패스와 2단 수평 빗금 그룹화로 최적화하신 완본 그래픽 (y=16~48, 두께 4px) -->
  <path class="st0" d="M16,16h32"/>
  <path class="st0" d="M32,16c-17.9,8-17.9,24-11.9,32"/>
  <path class="st0" d="M32,16c-9.7,8-9.7,24-6,32"/>
  <path class="st0" d="M32,16v32"/>
  <path class="st0" d="M32,16c9.7,8,9.7,24,6,32"/>
  <path class="st0" d="M32,16c17.9,8,17.9,24,11.9,32"/>
  <g>
    <g>
      <path class="st0" d="M16,29.7l3.6,2.3"/>
      <path class="st0" d="M23.2,29.7l3.6,2.3"/>
      <path class="st0" d="M30.2,29.6l3.6,2.6"/>
      <path class="st0" d="M37.2,29.7l3.6,2.3"/>
      <path class="st0" d="M44.4,29.7l3.6,2.3"/>
    </g>
    <g>
      <path class="st0" d="M16,36l3.6,2.3"/>
      <path class="st0" d="M23.2,36l3.6,2.3"/>
      <path class="st0" d="M30.2,35.8l3.6,2.6"/>
      <path class="st0" d="M37.2,36l3.6,2.3"/>
      <path class="st0" d="M44.4,36l3.6,2.3"/>
    </g>
  </g>
</svg>
