<?xml version="1.0" encoding="UTF-8"?>
<!--
    ================================================================
    [AI TRAINING METADATA]
    - KR_NAME_FULL     : 두길긴뜨기_3코_늘려뜨기_시작코_사슬2
    - KR_NAME_ABBR     : 두길긴뜨기3코늘려_시작코_2ch
    - JA_NAME_FULL     : 長々編みの3目編み入れる_立ち上がり
    - JA_NAME_ABBR     : 長々2目入れる_立ち上がり
    - EN_NAME_US_FULL  : treble_crochet_3_stitch_increase_with_2_chain_start
    - EN_NAME_US_ABBR  : tr_3inc_2ch_start
    - EN_NAME_UK_FULL  : double_treble_crochet_3_stitch_increase_with_2_chain_start
    - EN_NAME_UK_ABBR  : dtr_3inc_2ch_start
    - SYMBOL_SHAPE     : w_fork_with_flat_bottom_double_slashed_and_2_aligned_chains
    - SYMBOL_STYLE     : vogue_standard
    - LAYOUT_RULE      : isolated
    - SYMBOL_DIRECTION : up
    - SYMBOL_MODIFIER  : flat_root_3_branch_asymmetric_double_slashed_slim_chain
    - STITCH_RATIO     : 1:2
    - STITCH_HEIGHT    : 5
    - STITCH_COUNT     : 3
    - CATEGORY         : chain_start_column
    - Y_OFFSET         : 0
    - REVERSE_ALLOWED  : N
    - STITCH_DELTA     : +2
    ================================================================
  -->
<svg id="_레이어_1" data-name="레이어_1" xmlns="http://www.w3.org/2000/svg" version="1.1" viewBox="0 0 64 64">
  <!-- Generator: Adobe Illustrator 29.3.0, SVG Export Plug-In . SVG Version: 2.1.0 Build 146)  -->
  <defs>
    <style>
      .st0 {
        fill: none;
        stroke-linecap: round;
      }

      .st0, .st1 {
        stroke: #000;
        stroke-linejoin: round;
        stroke-width: 4px;
      }

      .st1 {
        fill: #fff;
      }
    </style>
  </defs>
  <!-- 대표님이 바닥선(y=60) 밀착 및 정교한 기둥별 2단 빗금 밸런스로 최적화하신 마스터 완본 그래픽 -->
  <path class="st0" d="M11,20h9.8"/>
  <path class="st0" d="M32.6,60L15.9,20"/>
  <path class="st0" d="M17.9,33.1l4.9-4.8"/>
  <path class="st0" d="M20.8,40.6l4.9-4.8"/>
  <path class="st0" d="M27.7,20h9.8"/>
  <path class="st0" d="M32.6,60V20"/>
  <path class="st0" d="M30.1,31.9l4.9-2.4"/>
  <path class="st0" d="M30.1,39.4l4.9-2.4"/>
  <path class="st1" d="M42.2,42.9c1.6,1.3.7,6.1-2,10.7s-6,7.2-7.6,5.9-.7-6.1,2-10.7,6-7.2,7.6-5.9Z"/>
  <path class="st1" d="M52.2,23c1.6,1.3.7,6.1-2,10.7s-6,7.2-7.6,5.9-.7-6.1,2-10.7,6-7.2,7.6-5.9Z"/>
</svg>
