<?xml version="1.0" encoding="UTF-8"?>
<!--
    ================================================================
    [AI TRAINING METADATA]
    - KR_NAME_FULL     : 긴뜨기_3코_늘려뜨기_시작코_사슬3
    - KR_NAME_ABBR     : 긴뜨기3코늘려_시작코_3ch
    - JA_NAME_FULL     : 中長編みの3目編み入れる_立ち上がり3目
    - JA_NAME_ABBR     : 中長3目入れる_立ち上がり3
    - EN_NAME_US_FULL  : half_double_crochet_3_stitch_increase_with_3_chain_start
    - EN_NAME_US_ABBR  : hdc_3inc_3ch_start
    - EN_NAME_UK_FULL  : half_treble_crochet_3_stitch_increase_with_3_chain_start
    - EN_NAME_UK_ABBR  : htr_3inc_3ch_start
    - SYMBOL_SHAPE     : w_fork_with_flat_bottom_and_3_compact_chains
    - SYMBOL_STYLE     : vogue_standard
    - LAYOUT_RULE      : isolated
    - SYMBOL_DIRECTION : up
    - SYMBOL_MODIFIER  : flat_root_3_branch_asymmetric_3_compressed_slim_chain
    - STITCH_RATIO     : 1:2
    - STITCH_HEIGHT    : 3
    - STITCH_COUNT     : 3
    - CATEGORY         : chain_start_column
    - Y_OFFSET         : 0
    - REVERSE_ALLOWED  : N
    - STITCH_DELTA     : +2
    ================================================================
  -->
<svg id="_레이어_1" data-name="레이어_1" xmlns="http://www.w3.org/2000/svg" version="1.1" viewBox="0 0 64 64">
  <!-- Generator: Adobe Illustrator 29.3.0, SVG Export Plug-In . SVG Version: 2.1.0 Build 146)  -->
  <defs>
    <style>
      .st0 {
        fill: none;
        stroke-linecap: round;
      }

      .st0, .st1 {
        stroke: #000;
        stroke-linejoin: round;
        stroke-width: 4px;
      }

      .st1 {
        fill: #fff;
      }
    </style>
  </defs>
  <!-- 대표님이 바닥선(y=60) 밀착 및 순수 패스로 깔끔하게 적층해오신 3단 사슬 마스터 그래픽 (두께 4px 표준화) -->
  <g>
    <path class="st0" d="M11,21.3h9.9"/>
    <path class="st0" d="M32.8,60L15.9,21.3"/>
    <path class="st0" d="M27.8,21.3h9.9"/>
    <path class="st0" d="M32.8,60V21.3"/>
  </g>
  <g>
    <path class="st1" d="M40.4,46.8c1.3,1.1.8,4.7-1.3,8.1-2,3.4-4.8,5.3-6.1,4.2s-.8-4.7,1.3-8.1,4.8-5.3,6.1-4.2Z"/>
    <path class="st1" d="M46.3,33.6c1.3,1.1.8,4.7-1.3,8.1s-4.8,5.3-6.1,4.2-.8-4.7,1.3-8.1c2-3.4,4.8-5.3,6.1-4.2Z"/>
    <path class="st1" d="M52.3,20.3c1.3,1.1.8,4.7-1.3,8.1s-4.8,5.3-6.1,4.2-.8-4.7,1.3-8.1,4.8-5.3,6.1-4.2Z"/>
  </g>
</svg>
