<svg xmlns="http://www.w3.org/2000/svg" viewBox="0 0 64 64" width="64" height="64">
  <!-- 
    ================================================================
    [AI TRAINING METADATA]
    - KR_NAME_FULL     : 한길_긴뜨기_5코_팝콘뜨기_한_코에서
    - KR_NAME_ABBR     : 한길5팝콘
    - JA_NAME_FULL     : 長編み5目のポップコーン編み
    - JA_NAME_ABBR     : 長編5目ポップコーン
    - EN_NAME_US_FULL  : double_crochet_5_stitch_popcorn
    - EN_NAME_US_ABBR  : dc_5_st_popcorn
    - EN_NAME_UK_FULL  : treble_crochet_5_stitch_popcorn
    - EN_NAME_UK_ABBR  : tr_5_st_popcorn
    - SYMBOL_SHAPE     : flat_oval_top_ring_with_outer_shell_enclosing_3_inner_bars_with_single_slashes
    - SYMBOL_STYLE     : dc_5_popcorn_isolated
    - LAYOUT_RULE      : isolated
    - SYMBOL_DIRECTION : up
    - SYMBOL_MODIFIER  : popcorn_top_ring
    - STITCH_RATIO     : 1:3
    - STITCH_HEIGHT    : 3
    - STITCH_COUNT     : 5
    - CATEGORY          : pop
    ================================================================
  -->
  <metadata>
    <rdf:RDF xmlns:rdf="http://www.w3.org/1999/02/22-rdf-syntax-ns#"
             xmlns:dc="http://purl.org/dc/elements/1.1/">
      <rdf:Description>
        <dc:title>한길 긴뜨기 5코 팝콘뜨기 (한 코에서)</dc:title>
        <dc:description>보그 코바늘 표준 한길 긴뜨기 5코 팝콘뜨기 (한 코에서) 기호. 통일된 상단 타원 링 규격 안에서 한길 긴뜨기 사선 빗금이 각각 포함된 총 5가닥의 기둥(외곽 2, 내측 곡선 2, 중앙 수직 1)이 흐트러짐 없이 촘촘하고 균형 있게 배열된 마스터 완본.</dc:description>
      </rdf:Description>
    </rdf:RDF>
  </metadata>

  <g fill="none" stroke="#000000" stroke-width="3.8" stroke-linecap="round" stroke-linejoin="round">
    <!-- 상단 가로형 타원 링 (머리 고리) -->
    <path d="M 32 10 C 40 10, 43 13, 42 16 C 40 19, 24 19, 22 16 C 21 13, 24 10, 32 10 Z" />

    <!-- 1번 가닥: 팝콘 외곽 왼쪽 라인 + 빗금 1개 -->
    <g>
      <path d="M 22 16 C 10 26, 10 48, 32 56" />
      <path d="M 11.5 33.0 L 16.1 35.5" />
    </g>

    <!-- 2번 가닥: 내부 왼쪽 곡선 기둥 + 빗금 1개 -->
    <g>
      <path d="M 26 20.5 C 22 32, 22 48, 32 56" />
      <path d="M 21.0 33.0 L 25.6 35.5" />
    </g>
    
    <!-- 3번 가닥: 정중앙 수직 기둥 + 빗금 1개 -->
    <g>
      <path d="M 32 21 L 32 56" />
      <path d="M 29.7 34.2 L 34.3 36.8" />
    </g>

    <!-- 4번 가닥: 내부 오른쪽 곡선 기둥 + 빗금 1개 -->
    <g>
      <path d="M 38 20.5 C 42 32, 42 48, 32 56" />
      <path d="M 38.4 33.0 L 43.0 35.5" />
    </g>

    <!-- 5번 가닥: 팝콘 외곽 오른쪽 라인 + 빗금 1개 -->
    <g>
      <path d="M 42 16 C 54 26, 54 48, 32 56" />
      <path d="M 47.9 33.0 L 52.5 35.5" />
    </g>
  </g>
</svg>
