<?xml version="1.0" encoding="UTF-8"?>
<!--
    ================================================================
    [AI TRAINING METADATA]
    - KR_NAME_FULL     : 한길_긴뜨기_4코_팝콘뜨기_한_코에서
    - KR_NAME_ABBR     : 한길4팝콘
    - JA_NAME_FULL     : 長編み4目のポップコーン編み
    - JA_NAME_ABBR     : 長編4目ポップコーン
    - EN_NAME_US_FULL  : double_crochet_4_stitch_popcorn
    - EN_NAME_US_ABBR  : dc_4_st_popcorn
    - EN_NAME_UK_FULL  : treble_crochet_4_stitch_popcorn
    - EN_NAME_UK_ABBR  : tr_4_st_popcorn
    - SYMBOL_SHAPE     : flat_oval_top_ring_with_outer_shell_enclosing_2_inner_curves_with_single_slashes
    - SYMBOL_STYLE     : dc_4_popcorn_isolated
    - LAYOUT_RULE      : isolated
    - SYMBOL_DIRECTION : up
    - SYMBOL_MODIFIER  : popcorn_top_ring
    - STITCH_RATIO     : 1:3
    - STITCH_HEIGHT    : 3
    - STITCH_COUNT     : 4
    - CATEGORY         : popcorn
    - Y_OFFSET         : 0
    - REVERSE_ALLOWED  : N
    - STITCH_DELTA     : 0
    ================================================================
  -->
<svg id="_레이어_1" xmlns="http://www.w3.org/2000/svg" version="1.1" viewBox="0 0 64 64">
  <defs>
    <style>
      .st0 {
        fill: none;
        stroke: #000;
        stroke-linecap: round;
        stroke-linejoin: round;
        stroke-width: 4px;
      }
    </style>
  </defs>
  <!-- 대표님이 바닥선(y=56) 밀착, 전체 고도 42px(y=14) 및 내부 곡선 유격(y=23.6)과 4개 가닥 전체 사선 빗금의 수평 일렬 정렬(y=35) 칼대칭 비례를 완벽하게 사수하신 한길긴뜨기 4코 팝콘뜨기 마스터 완본 그래픽 -->
  <path class="st0" d="M32,14c7.8,0,10.7,2.7,9.8,5.5-2,2.7-17.6,2.7-19.5,0-1-2.7,2-5.5,9.8-5.5Z"/>
  <path class="st0" d="M22.2,19.5c-11.7,9.1-11.7,29.2,9.8,36.5"/>
  <path class="st0" d="M12,35l4.5,2.3"/>
  <path class="st0" d="M27.1,23.6c-3.9,10.5-3.9,25.1,4.9,32.4"/>
  <path class="st0" d="M21.8,35l4.5,2.3"/>
  <path class="st0" d="M36.9,23.6c3.9,10.5,3.9,25.1-4.9,32.4"/>
  <path class="st0" d="M37.8,35l4.5,2.3"/>
  <path class="st0" d="M41.8,19.5c11.7,9.1,11.7,29.2-9.8,36.5"/>
  <path class="st0" d="M47.5,35l4.5,2.3"/>
</svg>
